# Blender 4.1.0
# www.blender.org
mtllib board.mtl
o Cube.073
o Cube.001
v -13.049999 0.600000 13.050000
v -10.950000 0.600000 13.050000
v -13.049999 0.600000 10.950000
v -10.950000 0.600000 10.950000
v 13.500000 0.300000 -13.500000
v 13.500000 0.000000 -13.500000
v 13.500000 0.300000 13.500000
v 13.500000 0.000000 13.500000
v -13.500000 0.300000 -13.500000
v -13.500000 0.000000 -13.500000
v -13.500000 0.300000 13.500000
v -13.500000 0.000000 13.500000
v 10.500000 0.000000 -13.500000
v 7.500000 0.000000 -13.500000
v 4.500000 0.000000 -13.500000
v 1.500000 0.000000 -13.500000
v -1.500000 0.000000 -13.500000
v -4.500000 0.000000 -13.500000
v -7.500000 0.000000 -13.500000
v -10.500000 0.000000 -13.500000
v 10.500000 0.300000 13.500000
v 7.500000 0.300000 13.500000
v 4.500000 0.300000 13.500000
v 1.500000 0.300000 13.500000
v -1.500000 0.300000 13.500000
v -4.500000 0.300000 13.500000
v -7.500000 0.300000 13.500000
v -10.500000 0.300000 13.500000
v -10.500000 0.000000 13.500000
v -7.500000 0.000000 13.500000
v -4.500000 0.000000 13.500000
v -1.500000 0.000000 13.500000
v 1.500000 0.000000 13.500000
v 4.500000 0.000000 13.500000
v 7.500000 0.000000 13.500000
v 10.500000 0.000000 13.500000
v -10.500000 0.300000 -13.500000
v -7.500000 0.300000 -13.500000
v -4.500000 0.300000 -13.500000
v -1.500000 0.300000 -13.500000
v 1.500000 0.300000 -13.500000
v 4.500000 0.300000 -13.500000
v 7.500000 0.300000 -13.500000
v 10.500000 0.300000 -13.500000
v -13.500000 0.000000 -10.500000
v -13.500000 0.000000 -7.500000
v -13.500000 0.000000 -4.500000
v -13.500000 0.000000 -1.500000
v -13.500000 0.000000 1.500000
v -13.500000 0.000000 4.500000
v -13.500000 0.000000 7.500000
v -13.500000 0.000000 10.500000
v 13.500000 0.300000 -10.500000
v 13.500000 0.300000 -7.500000
v 13.500000 0.300000 -4.500000
v 13.500000 0.300000 -1.500000
v 13.500000 0.300000 1.500000
v 13.500000 0.300000 4.500000
v 13.500000 0.300000 7.500000
v 13.500000 0.300000 10.500000
v -13.500000 0.300000 10.500000
v -13.500000 0.300000 7.500000
v -13.500000 0.300000 4.500000
v -13.500000 0.300000 1.500000
v -13.500000 0.300000 -1.500000
v -13.500000 0.300000 -4.500000
v -13.500000 0.300000 -7.500000
v -13.500000 0.300000 -10.500000
v 13.500000 0.000000 10.500000
v 13.500000 0.000000 7.500000
v 13.500000 0.000000 4.500000
v 13.500000 0.000000 1.500000
v 13.500000 0.000000 -1.500000
v 13.500000 0.000000 -4.500000
v 13.500000 0.000000 -7.500000
v 13.500000 0.000000 -10.500000
v -10.500000 0.000000 -10.500000
v -10.500000 0.000000 -7.500000
v -10.500000 0.000000 -4.500000
v -10.500000 0.000000 -1.500000
v -10.500000 0.000000 1.500000
v -10.500000 0.000000 4.500000
v -10.500000 0.000000 7.500000
v -10.500000 0.000000 10.500000
v -7.500000 0.000000 -10.500000
v -7.500000 0.000000 -7.500000
v -7.500000 0.000000 -4.500000
v -7.500000 0.000000 -1.500000
v -7.500000 0.000000 1.500000
v -7.500000 0.000000 4.500000
v -7.500000 0.000000 7.500000
v -7.500000 0.000000 10.500000
v -4.500000 0.000000 -10.500000
v -4.500000 0.000000 -7.500000
v -4.500000 0.000000 -4.500000
v -4.500000 0.000000 -1.500000
v -4.500000 0.000000 1.500000
v -4.500000 0.000000 4.500000
v -4.500000 0.000000 7.500000
v -4.500000 0.000000 10.500000
v -1.500000 0.000000 -10.500000
v -1.500000 0.000000 -7.500000
v -1.500000 0.000000 -4.500000
v -1.500000 0.000000 -1.500000
v -1.500000 0.000000 1.500000
v -1.500000 0.000000 4.500000
v -1.500000 0.000000 7.500000
v -1.500000 0.000000 10.500000
v 1.500000 0.000000 -10.500000
v 1.500000 0.000000 -7.500000
v 1.500000 0.000000 -4.500000
v 1.500000 0.000000 -1.500000
v 1.500000 0.000000 1.500000
v 1.500000 0.000000 4.500000
v 1.500000 0.000000 7.500000
v 1.500000 0.000000 10.500000
v 4.500000 0.000000 -10.500000
v 4.500000 0.000000 -7.500000
v 4.500000 0.000000 -4.500000
v 4.500000 0.000000 -1.500000
v 4.500000 0.000000 1.500000
v 4.500000 0.000000 4.500000
v 4.500000 0.000000 7.500000
v 4.500000 0.000000 10.500000
v 7.500000 0.000000 -10.500000
v 7.500000 0.000000 -7.500000
v 7.500000 0.000000 -4.500000
v 7.500000 0.000000 -1.500000
v 7.500000 0.000000 1.500000
v 7.500000 0.000000 4.500000
v 7.500000 0.000000 7.500000
v 7.500000 0.000000 10.500000
v 10.500000 0.000000 -10.500000
v 10.500000 0.000000 -7.500000
v 10.500000 0.000000 -4.500000
v 10.500000 0.000000 -1.500000
v 10.500000 0.000000 1.500000
v 10.500000 0.000000 4.500000
v 10.500000 0.000000 7.500000
v 10.500000 0.000000 10.500000
v 10.500000 0.300000 -10.500000
v 10.500000 0.300000 -7.500000
v 10.500000 0.300000 -4.500000
v 10.500000 0.300000 -1.500000
v 10.500000 0.300000 1.500000
v 10.500000 0.300000 4.500000
v 10.500000 0.300000 7.500000
v 10.500000 0.300000 10.500000
v 7.500000 0.300000 -10.500000
v 7.500000 0.300000 -7.500000
v 7.500000 0.300000 -4.500000
v 7.500000 0.300000 -1.500000
v 7.500000 0.300000 1.500000
v 7.500000 0.300000 4.500000
v 7.500000 0.300000 7.500000
v 7.500000 0.300000 10.500000
v 4.500000 0.300000 -10.500000
v 4.500000 0.300000 -7.500000
v 4.500000 0.300000 -4.500000
v 4.500000 0.300000 -1.500000
v 4.500000 0.300000 1.500000
v 4.500000 0.300000 4.500000
v 4.500000 0.300000 7.500000
v 4.500000 0.300000 10.500000
v 1.500000 0.300000 -10.500000
v 1.500000 0.300000 -7.500000
v 1.500000 0.300000 -4.500000
v 1.500000 0.300000 -1.500000
v 1.500000 0.300000 1.500000
v 1.500000 0.300000 4.500000
v 1.500000 0.300000 7.500000
v 1.500000 0.300000 10.500000
v -1.500000 0.300000 -10.500000
v -1.500000 0.300000 -7.500000
v -1.500000 0.300000 -4.500000
v -1.500000 0.300000 -1.500000
v -1.500000 0.300000 1.500000
v -1.500000 0.300000 4.500000
v -1.500000 0.300000 7.500000
v -1.500000 0.300000 10.500000
v -4.500000 0.300000 -10.500000
v -4.500000 0.300000 -7.500000
v -4.500000 0.300000 -4.500000
v -4.500000 0.300000 -1.500000
v -4.500000 0.300000 1.500000
v -4.500000 0.300000 4.500000
v -4.500000 0.300000 7.500000
v -4.500000 0.300000 10.500000
v -7.500000 0.300000 -10.500000
v -7.500000 0.300000 -7.500000
v -7.500000 0.300000 -4.500000
v -7.500000 0.300000 -1.500000
v -7.500000 0.300000 1.500000
v -7.500000 0.300000 4.500000
v -7.500000 0.300000 7.500000
v -7.500000 0.300000 10.500000
v -10.500000 0.300000 -10.500000
v -10.500000 0.300000 -7.500000
v -10.500000 0.300000 -4.500000
v -10.500000 0.300000 -1.500000
v -10.500000 0.300000 1.500000
v -10.500000 0.300000 4.500000
v -10.500000 0.300000 7.500000
v -10.500000 0.300000 10.500000
v 13.050000 0.600000 -13.049999
v 10.950000 0.600000 -13.049999
v 13.050000 0.600000 -10.950000
v 10.950000 0.600000 -10.950000
v 13.050000 0.600000 -10.050000
v 13.050000 0.600000 -7.950000
v 10.950000 0.600000 -10.050000
v 10.950000 0.600000 -7.950000
v 13.050000 0.600000 -7.050001
v 13.050000 0.600000 -4.950000
v 10.950000 0.600000 -7.050001
v 10.950000 0.600000 -4.950000
v 13.050000 0.600000 -4.050000
v 13.050000 0.600000 -1.950000
v 10.950000 0.600000 -4.050000
v 10.950000 0.600000 -1.950000
v 13.050000 0.600000 -1.050000
v 13.050000 0.600000 1.050000
v 10.950000 0.600000 -1.050000
v 10.950000 0.600000 1.050000
v 13.050000 0.600000 1.950000
v 13.050000 0.600000 4.050000
v 10.950000 0.600000 1.950000
v 10.950000 0.600000 4.050000
v 13.050000 0.600000 4.950000
v 13.050000 0.600000 7.050001
v 10.950000 0.600000 4.950000
v 10.950000 0.600000 7.050001
v 13.050000 0.600000 7.950000
v 13.050000 0.600000 10.050000
v 10.950000 0.600000 7.950000
v 10.950000 0.600000 10.050000
v 13.050000 0.600000 13.050000
v 13.050000 0.600000 10.950000
v 10.950000 0.600000 13.050000
v 10.950000 0.600000 10.950000
v 10.050000 0.600000 13.050000
v 7.950000 0.600000 13.050000
v 10.050000 0.600000 10.950000
v 7.950000 0.600000 10.950000
v 10.050000 0.600000 7.950000
v 10.050000 0.600000 10.050000
v 7.950000 0.600000 7.950000
v 7.950000 0.600000 10.050000
v 10.050000 0.600000 4.950000
v 10.050000 0.600000 7.050001
v 7.950000 0.600000 4.950000
v 7.950000 0.600000 7.050001
v 10.050000 0.600000 1.950000
v 10.050000 0.600000 4.050000
v 7.950000 0.600000 1.950000
v 7.950000 0.600000 4.050000
v 10.050000 0.600000 -1.050000
v 10.050000 0.600000 1.050000
v 7.950000 0.600000 -1.050000
v 7.950000 0.600000 1.050000
v 10.050000 0.600000 -4.050000
v 10.050000 0.600000 -1.950000
v 7.950000 0.600000 -4.050000
v 7.950000 0.600000 -1.950000
v 10.050000 0.600000 -7.050001
v 10.050000 0.600000 -4.950000
v 7.950000 0.600000 -7.050001
v 7.950000 0.600000 -4.950000
v 10.050000 0.600000 -10.050000
v 10.050000 0.600000 -7.950000
v 7.950000 0.600000 -10.050000
v 7.950000 0.600000 -7.950000
v 7.950000 0.600000 -13.049999
v 10.050000 0.600000 -13.049999
v 7.950000 0.600000 -10.950000
v 10.050000 0.600000 -10.950000
v 4.950000 0.600000 -13.049999
v 7.050001 0.600000 -13.049999
v 4.950000 0.600000 -10.950000
v 7.050001 0.600000 -10.950000
v 7.050001 0.600000 7.950000
v 7.050001 0.600000 10.050000
v 4.950000 0.600000 7.950000
v 4.950000 0.600000 10.050000
v 7.050001 0.600000 13.050000
v 4.950000 0.600000 13.050000
v 7.050001 0.600000 10.950000
v 4.950000 0.600000 10.950000
v 1.950000 0.600000 -13.049999
v 4.050000 0.600000 -13.049999
v 1.950000 0.600000 -10.950000
v 4.050000 0.600000 -10.950000
v 4.050000 0.600000 7.950000
v 4.050000 0.600000 10.050000
v 1.950000 0.600000 7.950000
v 1.950000 0.600000 10.050000
v 4.050000 0.600000 13.050000
v 1.950000 0.600000 13.050000
v 4.050000 0.600000 10.950000
v 1.950000 0.600000 10.950000
v -1.050000 0.600000 -13.049999
v 1.050000 0.600000 -13.049999
v -1.050000 0.600000 -10.950000
v 1.050000 0.600000 -10.950000
v 1.050000 0.600000 7.950000
v 1.050000 0.600000 10.050000
v -1.050000 0.600000 7.950000
v -1.050000 0.600000 10.050000
v 1.050000 0.600000 13.050000
v -1.050000 0.600000 13.050000
v 1.050000 0.600000 10.950000
v -1.050000 0.600000 10.950000
v -1.950000 0.600000 13.050000
v -4.050000 0.600000 13.050000
v -1.950000 0.600000 10.950000
v -4.050000 0.600000 10.950000
v -1.950000 0.600000 7.950000
v -1.950000 0.600000 10.050000
v -4.050000 0.600000 7.950000
v -4.050000 0.600000 10.050000
v -4.050000 0.600000 -13.049999
v -1.950000 0.600000 -13.049999
v -4.050000 0.600000 -10.950000
v -1.950000 0.600000 -10.950000
v -7.050001 0.600000 -13.049999
v -4.950000 0.600000 -13.049999
v -7.050001 0.600000 -10.950000
v -4.950000 0.600000 -10.950000
v -4.950000 0.600000 7.950000
v -4.950000 0.600000 10.050000
v -7.050001 0.600000 7.950000
v -7.050001 0.600000 10.050000
v -4.950000 0.600000 13.050000
v -7.050001 0.600000 13.050000
v -4.950000 0.600000 10.950000
v -7.050001 0.600000 10.950000
v -10.050000 0.600000 -13.049999
v -7.950000 0.600000 -13.049999
v -10.050000 0.600000 -10.950000
v -7.950000 0.600000 -10.950000
v -7.950000 0.600000 7.950000
v -7.950000 0.600000 10.050000
v -10.050000 0.600000 7.950000
v -10.050000 0.600000 10.050000
v -7.950000 0.600000 13.050000
v -10.050000 0.600000 13.050000
v -7.950000 0.600000 10.950000
v -10.050000 0.600000 10.950000
v -13.049999 0.600000 10.050000
v -13.049999 0.600000 7.950000
v -10.950000 0.600000 10.050000
v -10.950000 0.600000 7.950000
v -13.049999 0.600000 7.050001
v -13.049999 0.600000 4.950000
v -10.950000 0.600000 7.050001
v -10.950000 0.600000 4.950000
v -13.049999 0.600000 4.050000
v -13.049999 0.600000 1.950000
v -10.950000 0.600000 4.050000
v -10.950000 0.600000 1.950000
v -13.049999 0.600000 1.050000
v -13.049999 0.600000 -1.050000
v -10.950000 0.600000 1.050000
v -10.950000 0.600000 -1.050000
v -13.049999 0.600000 -1.950000
v -13.049999 0.600000 -4.050000
v -10.950000 0.600000 -1.950000
v -10.950000 0.600000 -4.050000
v -13.049999 0.600000 -4.950000
v -13.049999 0.600000 -7.050000
v -10.950000 0.600000 -4.950000
v -10.950000 0.600000 -7.050000
v -13.049999 0.600000 -7.950000
v -13.049999 0.600000 -10.050000
v -10.950000 0.600000 -7.950000
v -10.950000 0.600000 -10.050000
v -13.049999 0.600000 -13.049999
v -13.049999 0.600000 -10.950000
v -10.950000 0.600000 -13.049999
v -10.950000 0.600000 -10.950000
v -7.950000 0.600000 -10.050000
v -7.950000 0.600000 -7.950000
v -10.050000 0.600000 -10.050000
v -10.050000 0.600000 -7.950000
v -4.950000 0.600000 -10.050000
v -4.950000 0.600000 -7.950000
v -7.050001 0.600000 -10.050000
v -7.050001 0.600000 -7.950000
v -1.950000 0.600000 -10.050000
v -1.950000 0.600000 -7.950000
v -4.050000 0.600000 -10.050000
v -4.050000 0.600000 -7.950000
v 1.050000 0.600000 -10.050000
v 1.050000 0.600000 -7.950000
v -1.050000 0.600000 -10.050000
v -1.050000 0.600000 -7.950000
v 4.050000 0.600000 -10.050000
v 4.050000 0.600000 -7.950000
v 1.950000 0.600000 -10.050000
v 1.950000 0.600000 -7.950000
v 7.050001 0.600000 -10.050000
v 7.050001 0.600000 -7.950000
v 4.950000 0.600000 -10.050000
v 4.950000 0.600000 -7.950000
v 7.050001 0.600000 -7.050001
v 7.050001 0.600000 -4.950000
v 4.950000 0.600000 -7.050001
v 4.950000 0.600000 -4.950000
v 7.050001 0.600000 -4.050000
v 7.050001 0.600000 -1.950000
v 4.950000 0.600000 -4.050000
v 4.950000 0.600000 -1.950000
v 7.050001 0.600000 -1.050000
v 7.050001 0.600000 1.050000
v 4.950000 0.600000 -1.050000
v 4.950000 0.600000 1.050000
v 7.050001 0.600000 1.950000
v 7.050001 0.600000 4.050000
v 4.950000 0.600000 1.950000
v 4.950000 0.600000 4.050000
v 7.050001 0.600000 4.950000
v 7.050001 0.600000 7.050001
v 4.950000 0.600000 4.950000
v 4.950000 0.600000 7.050001
v 4.050000 0.600000 4.950000
v 4.050000 0.600000 7.050001
v 1.950000 0.600000 4.950000
v 1.950000 0.600000 7.050001
v 1.050000 0.600000 4.950000
v 1.050000 0.600000 7.050001
v -1.050000 0.600000 4.950000
v -1.050000 0.600000 7.050001
v -1.950000 0.600000 4.950000
v -1.950000 0.600000 7.050001
v -4.050000 0.600000 4.950000
v -4.050000 0.600000 7.050001
v -4.950000 0.600000 4.950000
v -4.950000 0.600000 7.050001
v -7.050001 0.600000 4.950000
v -7.050001 0.600000 7.050001
v -7.950000 0.600000 4.950000
v -7.950000 0.600000 7.050001
v -10.050000 0.600000 4.950000
v -10.050000 0.600000 7.050001
v -7.950000 0.600000 1.950000
v -7.950000 0.600000 4.050000
v -10.050000 0.600000 1.950000
v -10.050000 0.600000 4.050000
v -7.950000 0.600000 -1.050000
v -7.950000 0.600000 1.050000
v -10.050000 0.600000 -1.050000
v -10.050000 0.600000 1.050000
v -7.950000 0.600000 -4.050000
v -7.950000 0.600000 -1.950000
v -10.050000 0.600000 -4.050000
v -10.050000 0.600000 -1.950000
v -7.950000 0.600000 -7.050001
v -7.950000 0.600000 -4.950000
v -10.050000 0.600000 -7.050001
v -10.050000 0.600000 -4.950000
v -4.950000 0.600000 -7.050001
v -4.950000 0.600000 -4.950000
v -7.050001 0.600000 -7.050001
v -7.050001 0.600000 -4.950000
v -1.950000 0.600000 -7.050001
v -1.950000 0.600000 -4.950000
v -4.050000 0.600000 -7.050001
v -4.050000 0.600000 -4.950000
v 1.050000 0.600000 -7.050001
v 1.050000 0.600000 -4.950000
v -1.050000 0.600000 -7.050001
v -1.050000 0.600000 -4.950000
v 4.050000 0.600000 1.950000
v 4.050000 0.600000 4.050000
v 1.950000 0.600000 1.950000
v 1.950000 0.600000 4.050000
v 1.050000 0.600000 1.950000
v 1.050000 0.600000 4.050000
v -1.050000 0.600000 1.950000
v -1.050000 0.600000 4.050000
v -1.950000 0.600000 1.950000
v -1.950000 0.600000 4.050000
v -4.050000 0.600000 1.950000
v -4.050000 0.600000 4.050000
v -4.950000 0.600000 1.950000
v -4.950000 0.600000 4.050000
v -7.050001 0.600000 1.950000
v -7.050001 0.600000 4.050000
v 4.050000 0.600000 -1.050000
v 4.050000 0.600000 1.050000
v 1.950000 0.600000 -1.050000
v 1.950000 0.600000 1.050000
v 1.050000 0.600000 -1.050000
v 1.050000 0.600000 1.050000
v -1.050000 0.600000 -1.050000
v -1.050000 0.600000 1.050000
v -1.950000 0.600000 -1.050000
v -1.950000 0.600000 1.050000
v -4.050000 0.600000 -1.050000
v -4.050000 0.600000 1.050000
v -4.950000 0.600000 -1.050000
v -4.950000 0.600000 1.050000
v -7.050001 0.600000 -1.050000
v -7.050001 0.600000 1.050000
v 4.050000 0.600000 -4.050000
v 4.050000 0.600000 -1.950000
v 1.950000 0.600000 -4.050000
v 1.950000 0.600000 -1.950000
v 4.050000 0.600000 -7.050001
v 4.050000 0.600000 -4.950000
v 1.950000 0.600000 -7.050001
v 1.950000 0.600000 -4.950000
v 1.050000 0.600000 -4.050000
v 1.050000 0.600000 -1.950000
v -1.050000 0.600000 -4.050000
v -1.050000 0.600000 -1.950000
v -1.950000 0.600000 -4.050000
v -1.950000 0.600000 -1.950000
v -4.050000 0.600000 -4.050000
v -4.050000 0.600000 -1.950000
v -4.950000 0.600000 -4.050000
v -4.950000 0.600000 -1.950000
v -7.050001 0.600000 -4.050000
v -7.050001 0.600000 -1.950000
vn -0.0000 1.0000 -0.0000
vn -0.0000 -1.0000 -0.0000
vn -0.0000 -0.0000 1.0000
vn -1.0000 -0.0000 -0.0000
vn 1.0000 -0.0000 -0.0000
vn -0.0000 -0.0000 -1.0000
vn -0.0000 0.8320 0.5547
vn -0.5547 0.8320 -0.0000
vn 0.5547 0.8320 -0.0000
vn 0.5547 0.8321 -0.0000
vn -0.0000 0.8321 0.5547
vn -0.5547 0.8321 -0.0000
vn -0.0000 0.8321 -0.5547
vn -0.0000 0.8320 -0.5547
vt 0.847222 0.722222
vt 0.875000 0.722222
vt 0.875000 0.750000
vt 0.847222 0.750000
vt 0.375000 0.972222
vt 0.625000 0.972222
vt 0.625000 1.000000
vt 0.375000 1.000000
vt 0.375000 0.222222
vt 0.625000 0.222222
vt 0.625000 0.250000
vt 0.375000 0.250000
vt 0.347222 0.722222
vt 0.375000 0.722222
vt 0.375000 0.750000
vt 0.347222 0.750000
vt 0.625000 0.722222
vt 0.625000 0.750000
vt 0.375000 0.472222
vt 0.625000 0.472222
vt 0.625000 0.500000
vt 0.375000 0.500000
vt 0.625000 0.277778
vt 0.375000 0.277778
vt 0.625000 0.305556
vt 0.375000 0.305556
vt 0.625000 0.333333
vt 0.375000 0.333333
vt 0.625000 0.361111
vt 0.375000 0.361111
vt 0.625000 0.388889
vt 0.375000 0.388889
vt 0.625000 0.416667
vt 0.375000 0.416667
vt 0.625000 0.444444
vt 0.375000 0.444444
vt 0.125000 0.722222
vt 0.152778 0.722222
vt 0.152778 0.750000
vt 0.125000 0.750000
vt 0.180556 0.722222
vt 0.180556 0.750000
vt 0.208333 0.722222
vt 0.208333 0.750000
vt 0.236111 0.722222
vt 0.236111 0.750000
vt 0.263889 0.722222
vt 0.263889 0.750000
vt 0.291667 0.722222
vt 0.291667 0.750000
vt 0.319444 0.722222
vt 0.319444 0.750000
vt 0.625000 0.777778
vt 0.375000 0.777778
vt 0.625000 0.805556
vt 0.375000 0.805556
vt 0.625000 0.833333
vt 0.375000 0.833333
vt 0.625000 0.861111
vt 0.375000 0.861111
vt 0.625000 0.888889
vt 0.375000 0.888889
vt 0.625000 0.916667
vt 0.375000 0.916667
vt 0.625000 0.944444
vt 0.375000 0.944444
vt 0.652778 0.750000
vt 0.652778 0.722222
vt 0.680556 0.750000
vt 0.680556 0.722222
vt 0.708333 0.750000
vt 0.708333 0.722222
vt 0.736111 0.750000
vt 0.736111 0.722222
vt 0.763889 0.750000
vt 0.763889 0.722222
vt 0.791667 0.750000
vt 0.791667 0.722222
vt 0.819444 0.750000
vt 0.819444 0.722222
vt 0.819444 0.500000
vt 0.819444 0.527778
vt 0.847222 0.527778
vt 0.847222 0.500000
vt 0.847222 0.555556
vt 0.819444 0.555556
vt 0.847222 0.583333
vt 0.819444 0.611111
vt 0.819444 0.583333
vt 0.847222 0.611111
vt 0.847222 0.638889
vt 0.819444 0.666667
vt 0.819445 0.638889
vt 0.847222 0.666667
vt 0.847222 0.694444
vt 0.819444 0.694444
vt 0.791667 0.500000
vt 0.791667 0.527778
vt 0.791667 0.555556
vt 0.791667 0.583333
vt 0.791667 0.611111
vt 0.791667 0.638889
vt 0.791667 0.666667
vt 0.791667 0.694444
vt 0.763889 0.500000
vt 0.763889 0.527778
vt 0.763889 0.555556
vt 0.763889 0.583333
vt 0.763889 0.694444
vt 0.763889 0.666667
vt 0.736111 0.500000
vt 0.736111 0.527778
vt 0.736111 0.611111
vt 0.736111 0.583333
vt 0.763889 0.611111
vt 0.763889 0.638889
vt 0.736111 0.694444
vt 0.708333 0.500000
vt 0.708333 0.527778
vt 0.736111 0.555556
vt 0.708333 0.555556
vt 0.708333 0.611111
vt 0.736111 0.638889
vt 0.708333 0.638889
vt 0.708333 0.694444
vt 0.680556 0.500000
vt 0.680556 0.527778
vt 0.680556 0.555556
vt 0.708333 0.583333
vt 0.680556 0.638889
vt 0.680556 0.611111
vt 0.708333 0.666667
vt 0.680556 0.694444
vt 0.680556 0.666667
vt 0.652778 0.500000
vt 0.652778 0.527778
vt 0.652778 0.555556
vt 0.652778 0.583333
vt 0.680556 0.583333
vt 0.652778 0.611111
vt 0.652778 0.638889
vt 0.652778 0.666667
vt 0.652778 0.694444
vt 0.625000 0.527778
vt 0.625000 0.555556
vt 0.625000 0.583333
vt 0.625000 0.611111
vt 0.625000 0.638889
vt 0.625000 0.666667
vt 0.625000 0.694444
vt 0.319444 0.500000
vt 0.347222 0.500000
vt 0.347222 0.527778
vt 0.319444 0.527778
vt 0.347222 0.555556
vt 0.319444 0.555556
vt 0.347222 0.583333
vt 0.319444 0.583333
vt 0.347222 0.611111
vt 0.319444 0.611111
vt 0.347222 0.638889
vt 0.319444 0.638889
vt 0.347222 0.666667
vt 0.319444 0.666667
vt 0.347222 0.694444
vt 0.319444 0.694444
vt 0.291667 0.500000
vt 0.291667 0.527778
vt 0.291667 0.555556
vt 0.291667 0.583333
vt 0.291667 0.611111
vt 0.291667 0.638889
vt 0.291667 0.666667
vt 0.291667 0.694444
vt 0.263889 0.500000
vt 0.263889 0.527778
vt 0.263889 0.555556
vt 0.263889 0.583333
vt 0.263889 0.611111
vt 0.263889 0.638889
vt 0.263889 0.666667
vt 0.263889 0.694444
vt 0.236111 0.500000
vt 0.236111 0.527778
vt 0.236111 0.555556
vt 0.236111 0.583333
vt 0.236111 0.611111
vt 0.236111 0.638889
vt 0.236111 0.666667
vt 0.236111 0.694444
vt 0.208333 0.500000
vt 0.208333 0.527778
vt 0.208333 0.555556
vt 0.208333 0.583333
vt 0.208333 0.611111
vt 0.208333 0.638889
vt 0.208333 0.666667
vt 0.208333 0.694444
vt 0.180556 0.500000
vt 0.180556 0.527778
vt 0.180556 0.555556
vt 0.180556 0.583333
vt 0.180556 0.611111
vt 0.180556 0.638889
vt 0.180556 0.666667
vt 0.180556 0.694444
vt 0.152778 0.500000
vt 0.152778 0.527778
vt 0.152778 0.555556
vt 0.152778 0.583333
vt 0.152778 0.611111
vt 0.152778 0.638889
vt 0.152778 0.666667
vt 0.152778 0.694444
vt 0.125000 0.500000
vt 0.125000 0.527778
vt 0.125000 0.555556
vt 0.125000 0.583333
vt 0.125000 0.611111
vt 0.125000 0.638889
vt 0.125000 0.666667
vt 0.125000 0.694444
vt 0.375000 0.527778
vt 0.375000 0.555556
vt 0.375000 0.583333
vt 0.375000 0.611111
vt 0.375000 0.638889
vt 0.375000 0.666667
vt 0.375000 0.694444
vt 0.375000 0.000000
vt 0.625000 0.000000
vt 0.625000 0.027778
vt 0.375000 0.027778
vt 0.625000 0.055556
vt 0.375000 0.055556
vt 0.625000 0.083333
vt 0.375000 0.083333
vt 0.625000 0.111111
vt 0.375000 0.111111
vt 0.625000 0.138889
vt 0.375000 0.138889
vt 0.625000 0.166667
vt 0.375000 0.166667
vt 0.625000 0.194444
vt 0.375000 0.194444
vt 0.875000 0.527778
vt 0.875000 0.500000
vt 0.875000 0.555556
vt 0.875000 0.583333
vt 0.875000 0.611111
vt 0.875000 0.638889
vt 0.875000 0.666667
vt 0.875000 0.694444
vt 0.000000 0.000000
vt 0.736111 0.666667
s 0
usemtl Material
f 4/1/1 3/2/1 1/3/1 2/4/1
f 204/1/2 28/4/2 11/3/2 61/2/2
f 29/5/3 28/6/3 11/7/3 12/8/3
f 45/9/4 68/10/4 9/11/4 10/12/4
f 140/13/2 69/14/2 8/15/2 36/16/2
f 69/14/5 60/17/5 7/18/5 8/15/5
f 13/19/6 44/20/6 5/21/6 6/22/6
f 10/12/6 9/11/6 37/23/6 20/24/6
f 20/24/6 37/23/6 38/25/6 19/26/6
f 19/26/6 38/25/6 39/27/6 18/28/6
f 18/28/6 39/27/6 40/29/6 17/30/6
f 17/30/6 40/29/6 41/31/6 16/32/6
f 16/32/6 41/31/6 42/33/6 15/34/6
f 15/34/6 42/33/6 43/35/6 14/36/6
f 14/36/6 43/35/6 44/20/6 13/19/6
f 52/37/2 84/38/2 29/39/2 12/40/2
f 84/38/2 92/41/2 30/42/2 29/39/2
f 92/41/2 100/43/2 31/44/2 30/42/2
f 100/43/2 108/45/2 32/46/2 31/44/2
f 108/45/2 116/47/2 33/48/2 32/46/2
f 116/47/2 124/49/2 34/50/2 33/48/2
f 124/49/2 132/51/2 35/52/2 34/50/2
f 132/51/2 140/13/2 36/16/2 35/52/2
f 8/15/3 7/18/3 21/53/3 36/54/3
f 36/54/3 21/53/3 22/55/3 35/56/3
f 35/56/3 22/55/3 23/57/3 34/58/3
f 34/58/3 23/57/3 24/59/3 33/60/3
f 33/60/3 24/59/3 25/61/3 32/62/3
f 32/62/3 25/61/3 26/63/3 31/64/3
f 31/64/3 26/63/3 27/65/3 30/66/3
f 30/66/3 27/65/3 28/6/3 29/5/3
f 60/17/2 7/18/2 21/67/2 148/68/2
f 148/68/2 21/67/2 22/69/2 156/70/2
f 156/70/2 22/69/2 23/71/2 164/72/2
f 164/72/2 23/71/2 24/73/2 172/74/2
f 172/74/2 24/73/2 25/75/2 180/76/2
f 180/76/2 25/75/2 26/77/2 188/78/2
f 188/78/2 26/77/2 27/79/2 196/80/2
f 196/80/2 27/79/2 28/4/2 204/1/2
f 38/81/2 189/82/2 197/83/2 37/84/2
f 198/85/7 190/86/7 382/86/7 384/85/7
f 198/85/8 199/87/8 460/87/8 459/85/8
f 192/88/9 191/89/9 453/89/9 454/88/9
f 200/90/8 201/91/8 452/91/8 451/90/8
f 194/92/10 193/93/10 445/93/10 446/92/10
f 202/94/8 203/95/8 444/95/8 443/94/8
f 195/96/2 196/80/2 204/1/2 203/95/2
f 39/97/2 181/98/2 189/82/2 38/81/2
f 190/86/11 182/99/11 386/99/11 388/86/11
f 183/100/10 182/99/10 461/99/10 462/100/10
f 192/88/11 184/101/11 522/101/11 524/88/11
f 193/93/11 185/102/11 502/102/11 504/93/11
f 194/92/11 186/103/11 486/103/11 488/92/11
f 195/96/11 187/104/11 438/104/11 440/96/11
f 187/104/2 188/78/2 196/80/2 195/96/2
f 40/105/2 173/106/2 181/98/2 39/97/2
f 182/99/11 174/107/11 390/107/11 392/99/11
f 182/99/12 183/100/12 468/100/12 467/99/12
f 175/108/13 183/100/13 519/100/13 517/108/13
f 184/101/12 185/102/12 500/102/12 499/101/12
f 185/102/12 186/103/12 484/103/12 483/102/12
f 179/109/10 178/110/10 433/110/10 434/109/10
f 179/109/2 180/76/2 188/78/2 187/104/2
f 41/111/2 165/112/2 173/106/2 40/105/2
f 173/106/12 174/107/12 396/107/12 395/106/12
f 174/107/12 175/108/12 472/108/12 471/107/12
f 168/113/10 167/114/10 513/114/10 514/113/10
f 176/115/12 177/116/12 496/116/12 495/115/12
f 177/116/12 178/110/12 480/110/12 479/116/12
f 178/110/12 179/109/12 432/109/12 431/110/12
f 171/117/2 172/74/2 180/76/2 179/109/2
f 42/118/2 157/119/2 165/112/2 41/111/2
f 166/120/11 158/121/11 398/121/11 400/120/11
f 158/121/13 166/120/13 511/120/13 509/121/13
f 168/113/11 160/122/11 506/122/11 508/113/11
f 168/113/12 169/123/12 492/123/12 491/113/12
f 161/124/13 169/123/13 475/123/13 473/124/13
f 171/117/11 163/125/11 426/125/11 428/117/11
f 163/125/2 164/72/2 172/74/2 171/117/2
f 43/126/2 149/127/2 157/119/2 42/118/2
f 150/128/9 149/127/9 401/127/9 402/128/9
f 158/121/12 159/129/12 408/129/12 407/121/12
f 159/129/12 160/122/12 412/122/12 411/129/12
f 153/130/9 152/131/9 413/131/9 414/130/9
f 161/124/12 162/132/12 420/132/12 419/124/12
f 155/133/9 154/134/9 421/134/9 422/133/9
f 155/133/2 156/70/2 164/72/2 163/125/2
f 44/135/2 141/136/2 149/127/2 43/126/2
f 141/136/2 142/137/2 150/128/2 149/127/2
f 142/137/2 143/138/2 151/139/2 150/128/2
f 143/138/2 144/140/2 152/131/2 151/139/2
f 144/140/2 145/141/2 153/130/2 152/131/2
f 145/141/2 146/142/2 154/134/2 153/130/2
f 146/142/2 147/143/2 155/133/2 154/134/2
f 147/143/2 148/68/2 156/70/2 155/133/2
f 5/21/2 53/144/2 141/136/2 44/135/2
f 53/144/2 54/145/2 142/137/2 141/136/2
f 54/145/2 55/146/2 143/138/2 142/137/2
f 55/146/2 56/147/2 144/140/2 143/138/2
f 56/147/2 57/148/2 145/141/2 144/140/2
f 57/148/2 58/149/2 146/142/2 145/141/2
f 58/149/2 59/150/2 147/143/2 146/142/2
f 59/150/2 60/17/2 148/68/2 147/143/2
f 14/151/2 13/152/2 133/153/2 125/154/2
f 125/154/2 133/153/2 134/155/2 126/156/2
f 126/156/2 134/155/2 135/157/2 127/158/2
f 127/158/2 135/157/2 136/159/2 128/160/2
f 128/160/2 136/159/2 137/161/2 129/162/2
f 129/162/2 137/161/2 138/163/2 130/164/2
f 130/164/2 138/163/2 139/165/2 131/166/2
f 131/166/2 139/165/2 140/13/2 132/51/2
f 15/167/2 14/151/2 125/154/2 117/168/2
f 117/168/2 125/154/2 126/156/2 118/169/2
f 118/169/2 126/156/2 127/158/2 119/170/2
f 119/170/2 127/158/2 128/160/2 120/171/2
f 120/171/2 128/160/2 129/162/2 121/172/2
f 121/172/2 129/162/2 130/164/2 122/173/2
f 122/173/2 130/164/2 131/166/2 123/174/2
f 123/174/2 131/166/2 132/51/2 124/49/2
f 16/175/2 15/167/2 117/168/2 109/176/2
f 109/176/2 117/168/2 118/169/2 110/177/2
f 110/177/2 118/169/2 119/170/2 111/178/2
f 111/178/2 119/170/2 120/171/2 112/179/2
f 112/179/2 120/171/2 121/172/2 113/180/2
f 113/180/2 121/172/2 122/173/2 114/181/2
f 114/181/2 122/173/2 123/174/2 115/182/2
f 115/182/2 123/174/2 124/49/2 116/47/2
f 17/183/2 16/175/2 109/176/2 101/184/2
f 101/184/2 109/176/2 110/177/2 102/185/2
f 102/185/2 110/177/2 111/178/2 103/186/2
f 103/186/2 111/178/2 112/179/2 104/187/2
f 104/187/2 112/179/2 113/180/2 105/188/2
f 105/188/2 113/180/2 114/181/2 106/189/2
f 106/189/2 114/181/2 115/182/2 107/190/2
f 107/190/2 115/182/2 116/47/2 108/45/2
f 18/191/2 17/183/2 101/184/2 93/192/2
f 93/192/2 101/184/2 102/185/2 94/193/2
f 94/193/2 102/185/2 103/186/2 95/194/2
f 95/194/2 103/186/2 104/187/2 96/195/2
f 96/195/2 104/187/2 105/188/2 97/196/2
f 97/196/2 105/188/2 106/189/2 98/197/2
f 98/197/2 106/189/2 107/190/2 99/198/2
f 99/198/2 107/190/2 108/45/2 100/43/2
f 19/199/2 18/191/2 93/192/2 85/200/2
f 85/200/2 93/192/2 94/193/2 86/201/2
f 86/201/2 94/193/2 95/194/2 87/202/2
f 87/202/2 95/194/2 96/195/2 88/203/2
f 88/203/2 96/195/2 97/196/2 89/204/2
f 89/204/2 97/196/2 98/197/2 90/205/2
f 90/205/2 98/197/2 99/198/2 91/206/2
f 91/206/2 99/198/2 100/43/2 92/41/2
f 20/207/2 19/199/2 85/200/2 77/208/2
f 77/208/2 85/200/2 86/201/2 78/209/2
f 78/209/2 86/201/2 87/202/2 79/210/2
f 79/210/2 87/202/2 88/203/2 80/211/2
f 80/211/2 88/203/2 89/204/2 81/212/2
f 81/212/2 89/204/2 90/205/2 82/213/2
f 82/213/2 90/205/2 91/206/2 83/214/2
f 83/214/2 91/206/2 92/41/2 84/38/2
f 10/215/2 20/207/2 77/208/2 45/216/2
f 45/216/2 77/208/2 78/209/2 46/217/2
f 46/217/2 78/209/2 79/210/2 47/218/2
f 47/218/2 79/210/2 80/211/2 48/219/2
f 48/219/2 80/211/2 81/212/2 49/220/2
f 49/220/2 81/212/2 82/213/2 50/221/2
f 50/221/2 82/213/2 83/214/2 51/222/2
f 51/222/2 83/214/2 84/38/2 52/37/2
f 6/22/5 5/21/5 53/144/5 76/223/5
f 76/223/5 53/144/5 54/145/5 75/224/5
f 75/224/5 54/145/5 55/146/5 74/225/5
f 74/225/5 55/146/5 56/147/5 73/226/5
f 73/226/5 56/147/5 57/148/5 72/227/5
f 72/227/5 57/148/5 58/149/5 71/228/5
f 71/228/5 58/149/5 59/150/5 70/229/5
f 70/229/5 59/150/5 60/17/5 69/14/5
f 13/152/2 6/22/2 76/223/2 133/153/2
f 133/153/2 76/223/2 75/224/2 134/155/2
f 134/155/2 75/224/2 74/225/2 135/157/2
f 135/157/2 74/225/2 73/226/2 136/159/2
f 136/159/2 73/226/2 72/227/2 137/161/2
f 137/161/2 72/227/2 71/228/2 138/163/2
f 138/163/2 71/228/2 70/229/2 139/165/2
f 139/165/2 70/229/2 69/14/2 140/13/2
f 12/230/4 11/231/4 61/232/4 52/233/4
f 52/233/4 61/232/4 62/234/4 51/235/4
f 51/235/4 62/234/4 63/236/4 50/237/4
f 50/237/4 63/236/4 64/238/4 49/239/4
f 49/239/4 64/238/4 65/240/4 48/241/4
f 48/241/4 65/240/4 66/242/4 47/243/4
f 47/243/4 66/242/4 67/244/4 46/245/4
f 46/245/4 67/244/4 68/10/4 45/9/4
f 37/84/2 197/83/2 68/246/2 9/247/2
f 197/83/2 198/85/2 67/248/2 68/246/2
f 198/85/2 199/87/2 66/249/2 67/248/2
f 199/87/2 200/90/2 65/250/2 66/249/2
f 200/90/2 201/91/2 64/251/2 65/250/2
f 201/91/2 202/94/2 63/252/2 64/251/2
f 202/94/2 203/95/2 62/253/2 63/252/2
f 203/95/2 204/1/2 61/2/2 62/253/2
f 205/21/1 206/135/1 208/136/1 207/144/1
f 209/144/1 211/136/1 212/137/1 210/145/1
f 213/145/1 215/137/1 216/138/1 214/146/1
f 217/146/1 219/138/1 220/140/1 218/147/1
f 221/147/1 223/140/1 224/141/1 222/148/1
f 225/148/1 227/141/1 228/142/1 226/149/1
f 229/149/1 231/142/1 232/143/1 230/150/1
f 233/150/1 235/143/1 236/68/1 234/17/1
f 238/17/1 240/68/1 239/67/1 237/18/1
f 243/68/1 244/70/1 242/69/1 241/67/1
f 245/143/1 247/133/1 248/70/1 246/68/1
f 249/142/1 251/134/1 252/133/1 250/143/1
f 253/141/1 255/130/1 256/134/1 254/142/1
f 257/140/1 259/131/1 260/130/1 258/141/1
f 261/138/1 263/139/1 264/131/1 262/140/1
f 265/137/1 267/128/1 268/139/1 266/138/1
f 269/136/1 271/127/1 272/128/1 270/137/1
f 274/135/1 273/126/1 275/127/1 276/136/1
f 278/126/1 277/118/1 279/119/1 280/127/1
f 281/133/1 283/125/1 284/72/1 282/70/1
f 287/70/1 288/72/1 286/71/1 285/69/1
f 290/118/1 289/111/1 291/112/1 292/119/1
f 293/125/1 295/117/1 296/74/1 294/72/1
f 299/72/1 300/74/1 298/73/1 297/71/1
f 302/111/1 301/105/1 303/106/1 304/112/1
f 305/117/1 307/109/1 308/76/1 306/74/1
f 311/74/1 312/76/1 310/75/1 309/73/1
f 315/76/1 316/78/1 314/77/1 313/75/1
f 317/109/1 319/104/1 320/78/1 318/76/1
f 322/105/1 321/97/1 323/98/1 324/106/1
f 326/97/1 325/81/1 327/82/1 328/98/1
f 329/104/1 331/96/1 332/80/1 330/78/1
f 335/78/1 336/80/1 334/79/1 333/77/1
f 338/81/1 337/84/1 339/83/1 340/82/1
f 341/96/1 343/95/1 344/1/1 342/80/1
f 347/80/1 348/1/1 346/4/1 345/79/1
f 352/95/1 350/253/1 349/2/1 351/1/1
f 356/94/1 354/252/1 353/253/1 355/95/1
f 360/91/1 358/251/1 357/252/1 359/94/1
f 364/90/1 362/250/1 361/251/1 363/91/1
f 368/87/1 366/249/1 365/250/1 367/90/1
f 372/85/1 370/248/1 369/249/1 371/87/1
f 376/83/1 374/246/1 373/248/1 375/85/1
f 379/84/1 377/247/1 378/246/1 380/83/1
f 204/254/9 4/254/9 2/254/9 28/254/9
f 28/254/11 2/254/11 1/254/11 11/254/11
f 11/254/12 1/254/12 3/254/12 61/254/12
f 61/254/13 3/254/13 4/254/13 204/254/13
f 28/6/11 27/65/11 345/79/11 346/4/11
f 348/254/8 204/254/8 28/254/8 346/254/8
f 196/254/9 347/254/9 345/254/9 27/254/9
f 196/80/8 27/79/8 334/79/8 336/80/8
f 26/254/11 333/254/11 334/254/11 27/254/11
f 188/254/10 335/254/10 333/254/10 26/254/10
f 196/254/14 336/254/14 335/254/14 188/254/14
f 204/254/14 348/254/14 347/254/14 196/254/14
f 26/63/11 25/61/11 313/75/11 314/77/11
f 25/61/7 24/59/7 309/73/7 310/75/7
f 23/57/11 297/71/11 298/73/11 24/59/11
f 22/55/11 285/69/11 286/71/11 23/57/11
f 22/55/11 21/53/11 241/67/11 242/69/11
f 21/53/11 7/18/11 237/18/11 239/67/11
f 60/254/9 238/254/9 237/254/9 7/254/9
f 60/17/9 59/150/9 233/150/9 234/17/9
f 148/254/9 243/254/9 241/254/9 21/254/9
f 287/254/9 285/254/9 22/254/9 156/254/9
f 299/254/10 297/254/10 23/254/10 164/254/10
f 172/254/10 311/254/10 309/254/10 24/254/10
f 180/254/10 315/254/10 313/254/10 25/254/10
f 316/254/12 188/254/12 26/254/12 314/254/12
f 312/254/12 180/254/12 25/254/12 310/254/12
f 300/254/12 172/254/12 24/254/12 298/254/12
f 164/254/12 23/254/12 286/254/12 288/254/12
f 244/254/8 156/254/8 22/254/8 242/254/8
f 240/254/8 148/254/8 21/254/8 239/254/8
f 148/254/14 240/254/14 238/254/14 60/254/14
f 156/254/14 244/254/14 243/254/14 148/254/14
f 288/254/14 287/254/14 156/254/14 164/254/14
f 172/254/13 300/254/13 299/254/13 164/254/13
f 180/254/14 312/254/14 311/254/14 172/254/14
f 188/254/13 316/254/13 315/254/13 180/254/13
f 59/150/9 58/149/9 229/149/9 230/150/9
f 58/149/9 57/148/9 225/148/9 226/149/9
f 57/148/9 56/147/9 221/147/9 222/148/9
f 56/147/9 55/146/9 217/146/9 218/147/9
f 55/146/9 54/145/9 213/145/9 214/146/9
f 54/145/9 53/144/9 209/254/9 210/145/9
f 53/144/9 5/21/9 205/21/9 207/144/9
f 44/254/13 206/254/13 205/254/13 5/254/13
f 141/254/14 211/254/14 209/254/14 53/254/14
f 142/254/14 215/254/14 213/254/14 54/254/14
f 143/254/13 219/254/13 217/146/13 55/146/13
f 144/254/13 223/254/13 221/254/13 56/254/13
f 145/254/13 227/254/13 225/254/13 57/254/13
f 146/254/14 231/254/14 229/254/14 58/254/14
f 147/254/14 235/254/14 233/254/14 59/254/14
f 236/254/7 148/254/7 60/254/7 234/254/7
f 232/254/7 147/254/7 59/254/7 230/254/7
f 228/254/11 146/254/11 58/254/11 226/254/11
f 224/254/11 145/254/11 57/254/11 222/254/11
f 220/254/11 144/254/11 56/254/11 218/254/11
f 216/138/7 143/138/7 55/146/7 214/146/7
f 212/254/11 142/254/11 54/254/11 210/254/11
f 208/254/7 141/254/7 53/254/7 207/254/7
f 206/254/8 44/254/8 141/254/8 208/254/8
f 211/254/8 141/254/8 142/254/8 212/254/8
f 215/254/8 142/254/8 143/254/8 216/254/8
f 219/254/8 143/254/8 144/254/8 220/254/8
f 223/254/8 144/254/8 145/254/8 224/254/8
f 227/254/8 145/254/8 146/254/8 228/254/8
f 231/254/8 146/254/8 147/254/8 232/254/8
f 235/254/8 147/254/8 148/254/8 236/254/8
f 44/20/13 43/35/13 273/126/13 274/135/13
f 43/35/13 42/33/13 277/118/13 278/126/13
f 42/33/13 41/31/13 289/111/13 290/118/13
f 41/31/14 40/29/14 301/105/14 302/111/14
f 39/27/13 321/97/13 322/105/13 40/29/13
f 38/25/13 325/81/13 326/97/13 39/27/13
f 38/25/13 37/23/13 337/84/13 338/81/13
f 37/23/13 9/11/13 377/247/13 379/84/13
f 337/254/8 37/254/8 197/254/8 339/254/8
f 37/254/9 379/254/9 380/254/9 197/254/9
f 68/254/12 378/254/12 377/254/12 9/254/12
f 38/254/8 189/254/8 327/254/8 325/254/8
f 39/27/10 326/97/10 328/98/10 181/254/10
f 321/254/12 39/254/12 181/254/12 323/254/12
f 38/254/9 338/254/9 340/254/9 189/254/9
f 301/254/12 40/254/12 173/254/12 303/254/12
f 289/254/12 41/254/12 165/254/12 291/254/12
f 277/254/12 42/254/12 157/254/12 279/254/12
f 273/254/8 43/254/8 149/254/8 275/254/8
f 44/254/9 274/254/9 276/254/9 141/254/9
f 43/254/9 278/254/9 280/254/9 149/254/9
f 42/254/10 290/254/10 292/254/10 157/254/10
f 41/254/10 302/254/10 304/254/10 165/254/10
f 40/254/10 322/254/10 324/254/10 173/254/10
f 378/254/11 68/254/11 197/254/11 380/254/11
f 339/254/7 197/254/7 189/254/7 340/254/7
f 327/254/7 189/254/7 181/254/7 328/254/7
f 323/254/11 181/254/11 173/254/11 324/254/11
f 303/254/7 173/254/7 165/254/7 304/254/7
f 291/254/11 165/254/11 157/254/11 292/254/11
f 279/254/7 157/254/7 149/254/7 280/254/7
f 275/254/7 149/254/7 141/254/7 276/254/7
f 68/10/12 67/244/12 373/248/12 374/246/12
f 67/244/12 66/242/12 369/249/12 370/248/12
f 66/242/12 65/240/12 365/250/12 366/249/12
f 63/236/12 357/252/12 358/251/12 64/238/12
f 62/234/12 353/253/12 354/252/12 63/236/12
f 62/234/12 61/232/12 349/2/12 350/253/12
f 349/254/7 61/254/7 204/254/7 351/254/7
f 353/254/7 62/254/7 203/254/7 355/254/7
f 357/254/11 63/254/11 202/254/11 359/254/11
f 361/254/11 64/254/11 201/254/11 363/254/11
f 365/254/11 65/254/11 200/254/11 367/254/11
f 369/254/7 66/254/7 199/254/7 371/254/7
f 373/254/7 67/254/7 198/254/7 375/254/7
f 68/254/14 374/254/14 376/254/14 197/254/14
f 67/254/13 370/254/13 372/254/13 198/254/13
f 66/254/13 366/254/13 368/254/13 199/254/13
f 65/254/13 362/254/13 364/254/13 200/254/13
f 64/254/13 358/254/13 360/254/13 201/254/13
f 63/254/14 354/254/14 356/254/14 202/254/14
f 62/254/14 350/254/14 352/254/14 203/254/14
f 203/254/9 352/254/9 351/254/9 204/254/9
f 202/254/9 356/254/9 355/254/9 203/254/9
f 201/254/9 360/254/9 359/254/9 202/254/9
f 200/254/9 364/254/9 363/254/9 201/254/9
f 199/254/9 368/254/9 367/254/9 200/254/9
f 198/254/9 372/254/9 371/254/9 199/254/9
f 197/254/9 376/254/9 375/254/9 198/254/9
f 204/1/7 196/80/7 342/80/7 344/1/7
f 196/80/7 188/78/7 330/78/7 332/80/7
f 188/78/7 180/76/7 318/76/7 320/78/7
f 180/76/7 172/74/7 306/74/7 308/76/7
f 172/74/7 164/72/7 294/72/7 296/74/7
f 156/70/11 282/70/11 284/72/11 164/72/11
f 156/70/7 148/68/7 246/68/7 248/70/7
f 147/143/9 245/143/9 246/68/9 148/68/9
f 147/143/9 146/142/9 249/142/9 250/143/9
f 247/254/8 155/254/8 156/254/8 248/254/8
f 163/254/12 164/254/12 284/254/12 283/254/12
f 295/254/12 171/254/12 172/254/12 296/254/12
f 171/254/10 305/254/10 306/254/10 172/254/10
f 163/254/10 293/254/10 294/254/10 164/254/10
f 155/254/9 281/254/9 282/254/9 156/254/9
f 179/254/10 317/254/10 318/254/10 180/254/10
f 307/254/12 179/254/12 180/254/12 308/254/12
f 319/254/12 187/254/12 188/254/12 320/254/12
f 187/254/10 329/254/10 330/254/10 188/254/10
f 331/254/8 195/254/8 196/254/8 332/254/8
f 195/254/9 341/254/9 342/254/9 196/254/9
f 343/254/8 203/254/8 204/254/8 344/254/8
f 155/254/14 247/254/14 245/254/14 147/254/14
f 283/254/14 281/254/14 155/254/14 163/254/14
f 171/254/14 295/254/14 293/254/14 163/254/14
f 179/254/14 307/254/14 305/254/14 171/254/14
f 187/254/13 319/254/13 317/254/13 179/254/13
f 195/254/14 331/254/14 329/254/14 187/254/14
f 203/254/14 343/254/14 341/254/14 195/254/14
f 154/254/14 251/254/14 249/254/14 146/254/14
f 251/254/8 154/254/8 155/254/8 252/254/8
f 146/142/9 145/141/9 253/141/9 254/142/9
f 145/141/9 144/140/9 257/140/9 258/141/9
f 144/140/9 143/138/9 261/138/9 262/140/9
f 143/138/9 142/137/9 265/137/9 266/138/9
f 142/137/9 141/136/9 269/136/9 270/137/9
f 153/254/13 255/254/13 253/254/13 145/254/13
f 260/254/11 153/254/11 145/254/11 258/254/11
f 256/254/11 154/254/11 146/254/11 254/254/11
f 152/254/13 259/254/13 257/254/13 144/254/13
f 264/254/11 152/254/11 144/254/11 262/254/11
f 151/254/13 263/254/13 261/254/13 143/254/13
f 268/254/7 151/254/7 143/138/7 266/138/7
f 150/254/14 267/254/14 265/137/14 142/137/14
f 272/254/11 150/254/11 142/254/11 270/254/11
f 149/254/14 271/254/14 269/254/14 141/254/14
f 255/254/8 153/254/8 154/254/8 256/254/8
f 259/254/8 152/254/8 153/254/8 260/254/8
f 263/254/8 151/254/8 152/254/8 264/254/8
f 267/254/8 150/254/8 151/254/8 268/254/8
f 271/254/8 149/254/8 150/254/8 272/254/8
f 381/82/1 383/83/1 384/85/1 382/86/1
f 197/83/8 198/85/8 384/85/8 383/83/8
f 189/82/13 197/83/13 383/83/13 381/82/13
f 190/86/9 189/82/9 381/82/9 382/86/9
f 385/98/1 387/82/1 388/86/1 386/99/1
f 189/82/8 190/86/8 388/86/8 387/82/8
f 182/99/10 181/98/10 385/98/10 386/99/10
f 181/98/13 189/82/13 387/82/13 385/98/13
f 389/106/1 391/98/1 392/99/1 390/107/1
f 174/107/10 173/106/10 389/106/10 390/107/10
f 173/106/14 181/98/14 391/98/14 389/106/14
f 181/98/12 182/99/12 392/99/12 391/98/12
f 393/112/1 395/106/1 396/107/1 394/120/1
f 165/112/13 173/106/13 395/106/13 393/112/13
f 166/120/10 165/112/10 393/112/10 394/120/10
f 174/107/7 166/120/7 394/120/7 396/107/7
f 397/119/1 399/112/1 400/120/1 398/121/1
f 165/112/12 166/120/12 400/120/12 399/112/12
f 157/119/14 165/112/14 399/112/14 397/119/14
f 158/121/10 157/119/10 397/119/10 398/121/10
f 401/127/1 403/119/1 404/121/1 402/128/1
f 149/127/13 157/119/13 403/119/13 401/127/13
f 157/119/12 158/121/12 404/121/12 403/119/12
f 158/121/11 150/128/11 402/128/11 404/121/11
f 405/128/1 407/121/1 408/129/1 406/139/1
f 159/129/11 151/139/11 406/139/11 408/129/11
f 151/139/9 150/128/9 405/128/9 406/139/9
f 150/128/13 158/121/13 407/121/13 405/128/13
f 409/139/1 411/129/1 412/122/1 410/131/1
f 160/122/11 152/131/11 410/131/11 412/122/11
f 152/131/9 151/139/9 409/139/9 410/131/9
f 151/139/13 159/129/13 411/129/13 409/139/13
f 413/131/1 415/122/1 416/124/1 414/130/1
f 152/131/13 160/122/13 415/122/13 413/131/13
f 160/122/12 161/124/12 416/124/12 415/122/12
f 161/124/11 153/130/11 414/130/11 416/124/11
f 417/130/1 419/124/1 420/132/1 418/134/1
f 162/132/11 154/134/11 418/134/11 420/132/11
f 154/134/10 153/130/10 417/130/10 418/134/10
f 153/130/13 161/124/13 419/124/13 417/130/13
f 421/134/1 423/132/1 424/125/1 422/133/1
f 154/134/13 162/132/13 423/132/13 421/134/13
f 162/132/12 163/125/12 424/125/12 423/132/12
f 163/125/11 155/133/11 422/133/11 424/125/11
f 425/132/1 427/255/1 428/117/1 426/125/1
f 170/255/12 171/117/12 428/117/12 427/255/12
f 162/132/13 170/255/13 427/255/13 425/132/13
f 163/125/10 162/132/10 425/132/10 426/125/10
f 429/255/1 431/110/1 432/109/1 430/117/1
f 170/255/13 178/110/13 431/110/13 429/255/13
f 171/117/10 170/255/10 429/255/10 430/117/10
f 179/109/7 171/117/7 430/117/7 432/109/7
f 433/110/1 435/103/1 436/104/1 434/109/1
f 178/110/13 186/103/13 435/103/13 433/110/13
f 186/103/12 187/104/12 436/104/12 435/103/12
f 187/104/7 179/109/7 434/109/7 436/104/7
f 437/103/1 439/92/1 440/96/1 438/104/1
f 194/92/8 195/96/8 440/96/8 439/92/8
f 187/104/10 186/103/10 437/103/10 438/104/10
f 186/103/13 194/92/13 439/92/13 437/103/13
f 441/92/1 443/94/1 444/95/1 442/96/1
f 194/92/13 202/94/13 443/94/13 441/92/13
f 195/96/9 194/92/9 441/92/9 442/96/9
f 203/95/11 195/96/11 442/96/11 444/95/11
f 445/93/1 447/91/1 448/94/1 446/92/1
f 202/94/11 194/92/11 446/92/11 448/94/11
f 201/91/12 202/94/12 448/94/12 447/91/12
f 193/93/13 201/91/13 447/91/13 445/93/13
f 449/88/1 451/90/1 452/91/1 450/93/1
f 192/88/13 200/90/13 451/90/13 449/88/13
f 193/93/9 192/88/9 449/88/9 450/93/9
f 201/91/11 193/93/11 450/93/11 452/91/11
f 453/89/1 455/87/1 456/90/1 454/88/1
f 200/90/11 192/88/11 454/88/11 456/90/11
f 199/87/8 200/90/8 456/90/8 455/87/8
f 191/89/13 199/87/13 455/87/13 453/89/13
f 457/86/1 459/85/1 460/87/1 458/89/1
f 190/86/13 198/85/13 459/85/13 457/86/13
f 191/89/9 190/86/9 457/86/9 458/89/9
f 199/87/11 191/89/11 458/89/11 460/87/11
f 461/99/1 463/86/1 464/89/1 462/100/1
f 182/99/13 190/86/13 463/86/13 461/99/13
f 191/89/11 183/100/11 462/100/11 464/89/11
f 190/86/8 191/89/8 464/89/8 463/86/8
f 465/107/1 467/99/1 468/100/1 466/108/1
f 183/100/11 175/108/11 466/108/11 468/100/11
f 175/108/10 174/107/10 465/107/10 466/108/10
f 174/107/13 182/99/13 467/99/13 465/107/13
f 469/120/1 471/107/1 472/108/1 470/114/1
f 166/120/13 174/107/13 471/107/13 469/120/13
f 167/114/10 166/120/10 469/120/10 470/114/10
f 175/108/11 167/114/11 470/114/11 472/108/11
f 473/124/1 475/123/1 476/255/1 474/132/1
f 162/132/10 161/124/10 473/124/10 474/132/10
f 170/255/11 162/132/11 474/132/11 476/255/11
f 169/123/12 170/255/12 476/255/12 475/123/12
f 477/123/1 479/116/1 480/110/1 478/255/1
f 169/123/13 177/116/13 479/116/13 477/123/13
f 170/255/10 169/123/10 477/123/10 478/255/10
f 178/110/11 170/255/11 478/255/11 480/110/11
f 481/116/1 483/102/1 484/103/1 482/110/1
f 186/103/11 178/110/11 482/110/11 484/103/11
f 178/110/10 177/116/10 481/116/10 482/110/10
f 177/116/13 185/102/13 483/102/13 481/116/13
f 485/102/1 487/93/1 488/92/1 486/103/1
f 193/93/12 194/92/12 488/92/12 487/93/12
f 186/103/10 185/102/10 485/102/10 486/103/10
f 185/102/13 193/93/13 487/93/13 485/102/13
f 489/122/1 491/113/1 492/123/1 490/124/1
f 160/122/13 168/113/13 491/113/13 489/122/13
f 161/124/10 160/122/10 489/122/10 490/124/10
f 169/123/11 161/124/11 490/124/11 492/123/11
f 493/113/1 495/115/1 496/116/1 494/123/1
f 168/113/13 176/115/13 495/115/13 493/113/13
f 169/123/10 168/113/10 493/113/10 494/123/10
f 177/116/11 169/123/11 494/123/11 496/116/11
f 497/115/1 499/101/1 500/102/1 498/116/1
f 185/102/11 177/116/11 498/116/11 500/102/11
f 177/116/10 176/115/10 497/115/10 498/116/10
f 176/115/13 184/101/13 499/101/13 497/115/13
f 501/101/1 503/88/1 504/93/1 502/102/1
f 192/88/8 193/93/8 504/93/8 503/88/8
f 185/102/10 184/101/10 501/101/10 502/102/10
f 184/101/13 192/88/13 503/88/13 501/101/13
f 505/129/1 507/114/1 508/113/1 506/122/1
f 167/114/12 168/113/12 508/113/12 507/114/12
f 159/129/13 167/114/13 507/114/13 505/129/13
f 160/122/10 159/129/10 505/129/10 506/122/10
f 509/121/1 511/120/1 512/114/1 510/129/1
f 159/129/10 158/121/10 509/121/10 510/129/10
f 167/114/11 159/129/11 510/129/11 512/114/11
f 166/120/12 167/114/12 512/114/12 511/120/12
f 513/114/1 515/108/1 516/115/1 514/113/1
f 176/115/11 168/113/11 514/113/11 516/115/11
f 175/108/12 176/115/12 516/115/12 515/108/12
f 167/114/13 175/108/13 515/108/13 513/114/13
f 517/108/1 519/100/1 520/101/1 518/115/1
f 183/100/12 184/101/12 520/101/12 519/100/12
f 184/101/11 176/115/11 518/115/11 520/101/11
f 176/115/10 175/108/10 517/108/10 518/115/10
f 521/100/1 523/89/1 524/88/1 522/101/1
f 191/89/8 192/88/8 524/88/8 523/89/8
f 184/101/10 183/100/10 521/100/10 522/101/10
f 183/100/13 191/89/13 523/89/13 521/100/13
f 252/254/7 155/254/7 147/254/7 250/254/7
f 64/254/12 361/254/12 362/254/12 65/254/12
